<?xml version="1.0" standalone="no"?>
<!DOCTYPE svg PUBLIC "-//W3C//DTD SVG 20010904//EN"
 "http://www.w3.org/TR/2001/REC-SVG-20010904/DTD/svg10.dtd">
<svg version="1.0" xmlns="http://www.w3.org/2000/svg"
 width="110.000000pt" height="110.000000pt" viewBox="0 0 110.000000 110.000000"
 preserveAspectRatio="xMidYMid meet">
<metadata>
Created by potrace 1.11, written by Peter Selinger 2001-2013
</metadata>
<g transform="translate(0.000000,110.000000) scale(0.100000,-0.100000)"
fill="#000000" stroke="none">
<path d="M697 906 c-21 -8 -49 -27 -62 -42 -24 -28 -25 -28 -25 -6 0 12 -2 22
-4 22 -11 0 -122 -45 -126 -51 -3 -4 -5 -123 -5 -265 1 -216 3 -258 15 -265
32 -16 110 -49 117 -49 5 0 8 107 8 239 1 205 3 242 18 264 18 27 64 43 97 32
41 -13 45 -37 47 -320 1 -148 2 -275 2 -281 1 -6 20 -16 43 -23 23 -7 52 -19
64 -27 16 -11 24 -12 29 -4 7 12 8 601 1 651 -6 40 -33 85 -64 108 -38 27
-107 34 -155 17z"/>
<path d="M291 769 c-30 -10 -57 -23 -60 -28 -5 -7 -6 -306 -2 -332 1 -4 22
-14 49 -24 26 -10 52 -22 59 -27 6 -5 14 -5 17 0 8 13 6 432 -2 431 -4 0 -31
-9 -61 -20z"/>
</g>
</svg>
